<svg version="1.1" id="Layer_1" xmlns="http://www.w3.org/2000/svg" xmlns:xlink="http://www.w3.org/1999/xlink" x="0px" y="0px"
	 width="100%" viewBox="0 0 192 192" enable-background="new 0 0 192 192" xml:space="preserve">

<path fill="#95C341" opacity="1.000000" stroke="none" 
	d="
M79.846687,164.221954 
	C56.325115,166.061798 33.330368,148.524368 30.298309,120.808434 
	C27.616148,96.290916 44.328388,73.410172 68.439392,68.498085 
	C92.492607,63.597775 116.466713,79.822601 122.331024,104.970039 
	C129.050201,133.783340 109.099487,161.911697 79.846687,164.221954 
M67.821945,92.034225 
	C66.493500,92.719246 65.105827,93.310265 63.845963,94.104118 
	C53.500908,100.622635 49.212891,114.132530 53.782768,125.685158 
	C58.309494,137.128708 69.893318,143.777740 81.249336,141.450760 
	C95.741608,138.481155 104.540230,124.310257 101.009010,109.688454 
	C97.601646,95.579529 82.711380,86.468285 67.821945,92.034225 
z"/>
<path fill="#96C341" opacity="1.000000" stroke="none" 
	d="
M111.715729,55.207287 
	C100.997658,48.518372 89.442429,45.811062 77.152626,45.046955 
	C77.152626,37.625984 77.152626,30.540977 77.152626,23.500401 
	C100.247986,18.963650 135.805801,38.768723 152.342712,64.803741 
	C173.319641,97.828865 170.177307,139.538605 153.213577,165.038620 
	C147.368530,161.032379 141.529358,157.030167 135.742599,153.063889 
	C158.041870,109.912018 137.082535,70.157715 111.715729,55.207287 
z"/>
<path fill="#FEFEFD" opacity="1.000000" stroke="none" 
	d="
M68.191574,91.900726 
	C82.711380,86.468285 97.601646,95.579529 101.009010,109.688454 
	C104.540230,124.310257 95.741608,138.481155 81.249336,141.450760 
	C69.893318,143.777740 58.309494,137.128708 53.782768,125.685158 
	C49.212891,114.132530 53.500908,100.622635 63.845963,94.104118 
	C65.105827,93.310265 66.493500,92.719246 68.191574,91.900726 
z"/>
</svg>