<svg width="32" height="32" viewBox="0 0 32 32" fill="none" xmlns="http://www.w3.org/2000/svg">
<path d="M31.2723 15.8862C31.2723 24.3837 24.3837 31.2723 15.8862 31.2723C7.38862 31.2723 0.5 24.3837 0.5 15.8862C0.5 7.38862 7.38862 0.5 15.8862 0.5C24.3837 0.5 31.2723 7.38862 31.2723 15.8862Z" fill="#1F2A37" stroke="#DFE4EA"/>
<path d="M12.8542 11.3334C12.854 11.687 12.7133 12.0261 12.4632 12.276C12.213 12.5259 11.8738 12.6662 11.5202 12.6661C11.1665 12.6659 10.8275 12.5252 10.5776 12.2751C10.3276 12.0249 10.1873 11.6857 10.1875 11.3321C10.1877 10.9784 10.3283 10.6394 10.5785 10.3894C10.8287 10.1395 11.1679 9.99921 11.5215 9.99939C11.8751 9.99957 12.2142 10.1402 12.4641 10.3904C12.714 10.6406 12.8543 10.9798 12.8542 11.3334ZM12.8942 13.6534H10.2275V22.0001H12.8942V13.6534ZM17.1075 13.6534H14.4542V22.0001H17.0808V17.6201C17.0808 15.1801 20.2608 14.9534 20.2608 17.6201V22.0001H22.8942V16.7134C22.8942 12.6001 18.1875 12.7534 17.0808 14.7734L17.1075 13.6534Z" fill="#F9FAFB"/>
</svg>
