<svg width="33" height="32" viewBox="0 0 33 32" fill="none" xmlns="http://www.w3.org/2000/svg">
<path d="M0.544678 16C0.544678 7.16344 7.70812 0 16.5447 0C25.3812 0 32.5447 7.16344 32.5447 16C32.5447 24.8366 25.3812 32 16.5447 32C7.70812 32 0.544678 24.8366 0.544678 16Z" fill="#3758F9"/>
<path d="M20.3949 14.45H18.9949H18.4949V13.95V12.4V11.9H18.9949H20.0449C20.3199 11.9 20.5449 11.7 20.5449 11.4V8.75C20.5449 8.475 20.3449 8.25 20.0449 8.25H18.2199C16.2449 8.25 14.8699 9.65 14.8699 11.725V13.9V14.4H14.3699H12.6699C12.3199 14.4 11.9949 14.675 11.9949 15.075V16.875C11.9949 17.225 12.2699 17.55 12.6699 17.55H14.3199H14.8199V18.05V23.075C14.8199 23.425 15.0949 23.75 15.4949 23.75H17.8449C17.9949 23.75 18.1199 23.675 18.2199 23.575C18.3199 23.475 18.3949 23.3 18.3949 23.15V18.075V17.575H18.9199H20.0449C20.3699 17.575 20.6199 17.375 20.6699 17.075V17.05V17.025L21.0199 15.3C21.0449 15.125 21.0199 14.925 20.8699 14.725C20.8199 14.6 20.5949 14.475 20.3949 14.45Z" fill="white"/>
</svg>
