<svg width="200" height="42" viewBox="0 0 200 42" fill="none" xmlns="http://www.w3.org/2000/svg">
<path d="M61.118 18.8685C64.5945 18.8685 67.1589 16.6324 67.1589 12.7793C67.1589 8.92627 64.6117 6.67293 61.1352 6.67293H56.7637V18.8685H61.118ZM61.0319 16.6668H59.1387V8.87467H61.0491C63.0456 8.87467 64.6978 10.1304 64.6978 12.7793C64.6978 15.4283 63.0284 16.6668 61.0319 16.6668ZM70.188 9.02948C70.9797 9.02948 71.5993 8.39304 71.5993 7.63619C71.5993 6.84494 70.9797 6.2085 70.188 6.2085C69.4135 6.2085 68.7767 6.84494 68.7767 7.63619C68.7767 8.39304 69.4135 9.02948 70.188 9.02948ZM71.3411 18.8685V10.4056H69.0521V18.8685H71.3411ZM77.296 22.3947C80.48 22.3947 81.7363 20.279 81.7363 17.9569V10.4056H79.5334V11.4032C79.2408 10.8356 78.4663 10.2508 77.1239 10.2508C74.8004 10.2508 73.1826 12.1429 73.1826 14.379C73.1826 16.7528 74.8693 18.4901 77.1239 18.4901C78.3458 18.4901 79.1375 17.9569 79.4817 17.4064V18.0257C79.4817 19.6598 78.6728 20.3822 77.2271 20.3822C76.1429 20.3822 75.4028 19.7114 75.2479 18.7825L73.1826 19.3329C73.4236 20.9499 74.9725 22.3947 77.296 22.3947ZM77.5197 16.5292C76.3322 16.5292 75.4889 15.7035 75.4889 14.379C75.4889 13.0717 76.3838 12.2461 77.5197 12.2461C78.6212 12.2461 79.5162 13.0717 79.5162 14.379C79.5162 15.6863 78.69 16.5292 77.5197 16.5292ZM85.1957 9.02948C85.9874 9.02948 86.6069 8.39304 86.6069 7.63619C86.6069 6.84494 85.9874 6.2085 85.1957 6.2085C84.4212 6.2085 83.7844 6.84494 83.7844 7.63619C83.7844 8.39304 84.4212 9.02948 85.1957 9.02948ZM86.3488 18.8685V10.4056H84.0598V18.8685H86.3488ZM92.0283 18.9889C92.6995 18.9889 93.1126 18.8685 93.3191 18.7825V16.8904C93.1986 16.9248 92.8888 16.9592 92.6135 16.9592C91.9595 16.9592 91.6152 16.7184 91.6152 15.9787V12.4353H93.3191V10.4056H91.6152V7.877H89.55V9.06388C89.55 9.82073 89.1369 10.4056 88.242 10.4056H87.8117V12.4353H89.3434V16.3744C89.3434 18.0085 90.3761 18.9889 92.0283 18.9889ZM97.6046 19.1093C98.8609 19.1093 99.6698 18.5245 100.1 17.8537C100.1 18.1805 100.135 18.6449 100.186 18.8685H102.286C102.234 18.5761 102.183 17.9741 102.183 17.5268V13.3642C102.183 11.6613 101.184 10.1476 98.4995 10.1476C96.2277 10.1476 95.0057 11.6096 94.8681 12.9341L96.8989 13.3642C96.9678 12.6245 97.5185 11.9881 98.5167 11.9881C99.4805 11.9881 99.9452 12.4869 99.9452 13.0889C99.9452 13.3814 99.7903 13.6222 99.3084 13.691L97.2259 14.0006C95.8146 14.207 94.696 15.0499 94.696 16.5636C94.696 17.8881 95.7974 19.1093 97.6046 19.1093ZM98.0865 17.4064C97.3464 17.4064 96.985 16.9248 96.985 16.426C96.985 15.7723 97.4497 15.4455 98.0348 15.3595L99.9452 15.0671V15.4455C99.9452 16.942 99.0503 17.4064 98.0865 17.4064ZM106.778 18.8685V6.41491H104.489V18.8685H106.778ZM112.457 18.9889C113.129 18.9889 113.542 18.8685 113.748 18.7825V16.8904C113.628 16.9248 113.318 16.9592 113.043 16.9592C112.389 16.9592 112.044 16.7184 112.044 15.9787V12.4353H113.748V10.4056H112.044V7.877H109.979V9.06388C109.979 9.82073 109.566 10.4056 108.671 10.4056H108.241V12.4353H109.772V16.3744C109.772 18.0085 110.805 18.9889 112.457 18.9889Z" fill="#1F1F1F"/>
<path d="M59.3915 34.998V22.8569H56.9844V34.998H59.3915ZM64.2916 34.998V30.1518C64.2916 29.1757 64.8762 28.4051 65.8734 28.4051C66.9738 28.4051 67.438 29.1415 67.438 30.0833V34.998H69.7248V29.6895C69.7248 27.84 68.7619 26.3502 66.6643 26.3502C65.7531 26.3502 64.7386 26.7441 64.2228 27.6174V26.5728H62.0049V34.998H64.2916ZM74.3326 34.998V30.1518C74.3326 29.1757 74.9172 28.4051 75.9144 28.4051C77.0148 28.4051 77.479 29.1415 77.479 30.0833V34.998H79.7658V29.6895C79.7658 27.84 78.8029 26.3502 76.7053 26.3502C75.7941 26.3502 74.7796 26.7441 74.2638 27.6174V26.5728H72.0459V34.998H74.3326ZM85.8866 35.2548C88.4141 35.2548 90.3226 33.3712 90.3226 30.7854C90.3226 28.1825 88.4141 26.316 85.8866 26.316C83.3592 26.316 81.4507 28.1825 81.4507 30.7854C81.4507 33.3712 83.3592 35.2548 85.8866 35.2548ZM85.8866 33.1828C84.7691 33.1828 83.7375 32.3608 83.7375 30.7854C83.7375 29.1929 84.7691 28.388 85.8866 28.388C87.0042 28.388 88.0358 29.1929 88.0358 30.7854C88.0358 32.378 87.0042 33.1828 85.8866 33.1828ZM96.8217 34.998L100.106 26.5728H97.6986L95.6869 32.2239L93.5893 26.5728H91.0791L94.535 34.998H96.8217ZM103.888 35.2377C105.143 35.2377 105.951 34.6555 106.381 33.9876C106.381 34.313 106.416 34.7754 106.467 34.998H108.565C108.513 34.7069 108.462 34.1075 108.462 33.6623V29.5182C108.462 27.8229 107.464 26.316 104.782 26.316C102.513 26.316 101.292 27.7715 101.154 29.0901L103.183 29.5182C103.252 28.7819 103.802 28.1483 104.799 28.1483C105.762 28.1483 106.227 28.6449 106.227 29.2442C106.227 29.5353 106.072 29.7751 105.59 29.8436L103.51 30.1518C102.1 30.3573 100.983 31.1964 100.983 32.7033C100.983 34.0219 102.083 35.2377 103.888 35.2377ZM104.37 33.5424C103.63 33.5424 103.269 33.0629 103.269 32.5663C103.269 31.9156 103.733 31.5903 104.318 31.5046L106.227 31.2135V31.5903C106.227 33.0801 105.332 33.5424 104.37 33.5424ZM113.998 35.1178C114.669 35.1178 115.081 34.998 115.288 34.9124V33.0287C115.167 33.0629 114.858 33.0972 114.583 33.0972C113.929 33.0972 113.585 32.8574 113.585 32.1211V28.5935H115.288V26.5728H113.585V24.0556H111.522V25.2372C111.522 25.9906 111.11 26.5728 110.215 26.5728H109.786V28.5935H111.316V32.515C111.316 34.1418 112.347 35.1178 113.998 35.1178ZM118.314 25.2029C119.104 25.2029 119.723 24.5693 119.723 23.8158C119.723 23.0281 119.104 22.3945 118.314 22.3945C117.54 22.3945 116.904 23.0281 116.904 23.8158C116.904 24.5693 117.54 25.2029 118.314 25.2029ZM119.466 34.998V26.5728H117.179V34.998H119.466ZM125.707 35.2548C128.234 35.2548 130.143 33.3712 130.143 30.7854C130.143 28.1825 128.234 26.316 125.707 26.316C123.179 26.316 121.271 28.1825 121.271 30.7854C121.271 33.3712 123.179 35.2548 125.707 35.2548ZM125.707 33.1828C124.589 33.1828 123.558 32.3608 123.558 30.7854C123.558 29.1929 124.589 28.388 125.707 28.388C126.824 28.388 127.856 29.1929 127.856 30.7854C127.856 32.378 126.824 33.1828 125.707 33.1828ZM134.235 34.998V30.1518C134.235 29.1757 134.819 28.4051 135.817 28.4051C136.917 28.4051 137.381 29.1415 137.381 30.0833V34.998H139.668V29.6895C139.668 27.84 138.705 26.3502 136.607 26.3502C135.696 26.3502 134.682 26.7441 134.166 27.6174V26.5728H131.948V34.998H134.235ZM144.792 35.2548C147.01 35.2548 148.076 33.8507 148.076 32.4807C148.076 31.2478 147.233 30.2374 145.565 29.895L144.362 29.6381C143.898 29.5525 143.588 29.2956 143.588 28.8846C143.588 28.4051 144.069 28.0455 144.671 28.0455C145.634 28.0455 145.995 28.6791 146.064 29.1757L147.972 28.7476C147.869 27.84 147.061 26.316 144.654 26.316C142.832 26.316 141.49 27.5661 141.49 29.073C141.49 30.2546 142.23 31.2306 143.863 31.5903L144.981 31.8471C145.634 31.9841 145.892 32.2923 145.892 32.6691C145.892 33.1143 145.531 33.5082 144.774 33.5082C143.777 33.5082 143.279 32.8917 143.227 32.2239L141.267 32.652C141.37 33.6109 142.247 35.2548 144.792 35.2548ZM153.732 35.2548C155.985 35.2548 157.308 33.8164 157.687 32.4122L155.675 31.7444C155.486 32.3951 154.901 33.1657 153.732 33.1657C152.563 33.1657 151.566 32.3095 151.566 30.7854C151.566 29.2614 152.546 28.4223 153.715 28.4223C154.85 28.4223 155.383 29.1415 155.589 29.8436L157.635 29.1586C157.274 27.7373 155.967 26.316 153.663 26.316C151.205 26.316 149.279 28.1825 149.279 30.7854C149.279 33.3712 151.239 35.2548 153.732 35.2548ZM163.103 35.2548C165.183 35.2548 166.524 34.039 166.954 32.5835L165.046 32.0184C164.77 32.7718 164.186 33.3027 163.12 33.3027C161.985 33.3027 161.039 32.4978 160.988 31.3848H167.04C167.04 31.3505 167.074 31.008 167.074 30.6827C167.074 27.977 165.51 26.316 162.896 26.316C160.73 26.316 158.736 28.0627 158.736 30.7512C158.736 33.5938 160.782 35.2548 163.103 35.2548ZM164.822 29.8265H161.039C161.091 29.0559 161.744 28.1654 162.931 28.1654C164.237 28.1654 164.788 28.9874 164.822 29.8265ZM171.166 34.998V30.1518C171.166 29.1757 171.751 28.4051 172.748 28.4051C173.849 28.4051 174.313 29.1415 174.313 30.0833V34.998H176.6V29.6895C176.6 27.84 175.637 26.3502 173.539 26.3502C172.628 26.3502 171.613 26.7441 171.098 27.6174V26.5728H168.88V34.998H171.166ZM182.153 35.1178C182.824 35.1178 183.236 34.998 183.443 34.9124V33.0287C183.322 33.0629 183.013 33.0972 182.738 33.0972C182.084 33.0972 181.74 32.8574 181.74 32.1211V28.5935H183.443V26.5728H181.74V24.0556H179.677V25.2372C179.677 25.9906 179.265 26.5728 178.37 26.5728H177.941V28.5935H179.471V32.515C179.471 34.1418 180.502 35.1178 182.153 35.1178ZM189.065 35.2548C191.145 35.2548 192.486 34.039 192.916 32.5835L191.008 32.0184C190.733 32.7718 190.148 33.3027 189.082 33.3027C187.947 33.3027 187.002 32.4978 186.95 31.3848H193.002C193.002 31.3505 193.037 31.008 193.037 30.6827C193.037 27.977 191.472 26.316 188.859 26.316C186.692 26.316 184.698 28.0627 184.698 30.7512C184.698 33.5938 186.744 35.2548 189.065 35.2548ZM190.784 29.8265H187.002C187.053 29.0559 187.707 28.1654 188.893 28.1654C190.2 28.1654 190.75 28.9874 190.784 29.8265ZM197.129 34.998V31.145C197.129 29.3299 198.143 28.7648 199.312 28.7648C199.518 28.7648 199.742 28.7819 200 28.8333V26.5386C199.828 26.5215 199.656 26.5044 199.467 26.5044C198.745 26.5044 197.576 26.7098 197.06 27.8229V26.5728H194.842V34.998H197.129Z" fill="#1F1F1F"/>
<path fill-rule="evenodd" clip-rule="evenodd" d="M35.4223 0L29.4902 10.216L35.3933 20.3824L29.4904 30.6151L35.4225 40.7982L47.2286 20.3325L35.4223 0Z" fill="#9B4AFF"/>
<path fill-rule="evenodd" clip-rule="evenodd" d="M11.7485 0L0 20.5869V20.5872L11.8641 20.6208L17.7383 10.3272H29.6026L35.4767 0H11.7485Z" fill="#C88AFF"/>
<path fill-rule="evenodd" clip-rule="evenodd" d="M0 20.449L11.8642 41.0198L35.4767 40.9528L29.5735 30.6507L17.7672 30.6841L11.8354 20.3989L0 20.449Z" fill="#5500C9"/>
</svg>
