<svg width="33" height="32" viewBox="0 0 33 32" fill="none" xmlns="http://www.w3.org/2000/svg">
<path d="M1.27222 16C1.27222 7.43959 8.2118 0.5 16.7722 0.5C25.3326 0.5 32.2722 7.43959 32.2722 16C32.2722 24.5604 25.3326 31.5 16.7722 31.5C8.2118 31.5 1.27222 24.5604 1.27222 16Z" fill="#1F2A37" stroke="#DFE4EA"/>
<path d="M23.4075 12.3C23.4966 12.1961 23.3804 12.0603 23.2485 12.109C22.9543 12.2175 22.6853 12.2891 22.2876 12.3333C22.7768 12.0609 23.0043 11.6716 23.1894 11.1947C23.234 11.0797 23.0994 10.9753 22.9835 11.0302C22.5126 11.2535 22.0045 11.4191 21.4703 11.517C20.9422 10.9937 20.1895 10.6666 19.3568 10.6666C17.7579 10.6666 16.4613 11.8725 16.4613 13.3594C16.4613 13.5705 16.4871 13.7761 16.5359 13.973C14.2375 13.8659 12.188 12.8827 10.7641 11.375C10.6665 11.2717 10.4894 11.2854 10.4287 11.4114C10.2666 11.7477 10.1762 12.1207 10.1762 12.5134C10.1762 13.4475 10.6872 14.2716 11.464 14.7545C11.1157 14.744 10.7826 14.6762 10.4757 14.561C10.3262 14.5049 10.1549 14.6035 10.175 14.7542C10.3291 15.9114 11.2661 16.8662 12.4755 17.0918C12.2326 17.1536 11.9768 17.1864 11.7122 17.1864C11.648 17.1864 11.5844 17.1844 11.5214 17.1805C11.361 17.1706 11.2307 17.314 11.2994 17.4513C11.7531 18.3568 12.7327 18.9889 13.8727 19.0086C12.8818 19.731 11.6334 20.1614 10.2767 20.1614C10.1095 20.1614 10.0377 20.3764 10.1861 20.4494C11.3323 21.0128 12.6375 21.3333 14.0244 21.3333C19.3503 21.3333 22.2623 17.2302 22.2623 13.6717C22.2623 13.5552 22.2594 13.4387 22.2541 13.3233C22.6864 13.0329 23.075 12.6876 23.4075 12.3Z" fill="#F9FAFB"/>
</svg>
