<svg width="33" height="32" viewBox="0 0 33 32" fill="none" xmlns="http://www.w3.org/2000/svg">
<path d="M32.0445 15.8862C32.0445 24.3837 25.1559 31.2723 16.6584 31.2723C8.16083 31.2723 1.27222 24.3837 1.27222 15.8862C1.27222 7.38862 8.16083 0.5 16.6584 0.5C25.1559 0.5 32.0445 7.38862 32.0445 15.8862Z" fill="#1F2A37" stroke="#DFE4EA"/>
<g clip-path="url(#clip0_621_1314)">
<path d="M24.1972 12.275C24.0222 11.6 23.4972 11.075 22.8222 10.9C21.6222 10.575 16.7722 10.575 16.7722 10.575C16.7722 10.575 11.9222 10.575 10.7222 10.9C10.0472 11.075 9.52222 11.6 9.34722 12.275C9.02222 13.5 9.02222 16 9.02222 16C9.02222 16 9.02222 18.525 9.34722 19.7249C9.52222 20.4 10.0472 20.925 10.7222 21.0999C11.9222 21.425 16.7722 21.4249 16.7722 21.4249C16.7722 21.4249 21.6222 21.425 22.8222 21.0999C23.4972 20.925 24.0222 20.4 24.1972 19.7249C24.5222 18.525 24.5222 16 24.5222 16C24.5222 16 24.5222 13.5 24.1972 12.275ZM15.2222 18.325V13.675L19.2472 16L15.2222 18.325Z" fill="#F9FAFB"/>
</g>
<defs>
<clipPath id="clip0_621_1314">
<rect width="16" height="16" fill="white" transform="translate(8.77222 8)"/>
</clipPath>
</defs>
</svg>
